<svg width="13" height="10" viewBox="0 0 13 10" fill="none" xmlns="http://www.w3.org/2000/svg">
<path d="M0.835 9.95412V6.75912C0.835 5.52912 1.03 4.38912 1.42 3.33913C1.84 2.28912 2.545 1.25412 3.535 0.234125L5.29 1.53912C4.63 2.25912 4.15 2.93412 3.85 3.56412C3.55 4.16412 3.37 4.76412 3.31 5.36413H5.425V9.95412H0.835ZM8.305 9.95412V6.75912C8.305 5.52912 8.5 4.38912 8.89 3.33913C9.31 2.28912 10.015 1.25412 11.005 0.234125L12.76 1.53912C12.1 2.25912 11.62 2.93412 11.32 3.56412C11.02 4.16412 10.84 4.76412 10.78 5.36413H12.895V9.95412H8.305Z" fill="#07043B"/>
</svg>
